<?xml version="1.0" standalone="no"?>
<!DOCTYPE svg PUBLIC "-//W3C//DTD SVG 20010904//EN"
 "http://www.w3.org/TR/2001/REC-SVG-20010904/DTD/svg10.dtd">
<svg version="1.0" xmlns="http://www.w3.org/2000/svg"
 width="1024.000000pt" height="768.000000pt" viewBox="0 0 1024.000000 768.000000"
 preserveAspectRatio="xMidYMid meet">

<g transform="translate(0.000000,768.000000) scale(0.100000,-0.100000)"
fill="#000000" stroke="none">
<path d="M7644 5408 l-61 -31 -6 -306 c-4 -168 -7 -685 -7 -1149 l0 -843 68 2
69 3 6 720 c9 951 9 1636 0 1635 -5 0 -35 -14 -69 -31z"/>
<path d="M4655 4763 c-311 -38 -582 -248 -689 -534 -43 -114 -59 -228 -53
-374 6 -158 29 -255 93 -383 95 -193 301 -355 541 -424 108 -32 320 -31 437 1
305 82 525 309 607 626 33 128 34 342 1 465 -83 309 -370 560 -706 619 -57 10
-166 12 -231 4z m265 -174 c69 -15 199 -82 265 -136 113 -92 208 -243 246
-392 24 -93 25 -257 3 -345 -8 -33 -36 -103 -61 -155 -64 -129 -180 -250 -300
-309 -114 -56 -211 -76 -334 -69 -285 17 -527 197 -612 454 -77 233 -52 495
64 667 156 233 445 346 729 285z"/>
<path d="M2998 4740 c-122 -22 -238 -84 -296 -158 -133 -167 -126 -412 16
-550 68 -66 174 -115 365 -168 307 -85 354 -103 418 -161 59 -53 81 -104 87
-194 10 -177 -79 -280 -268 -310 -145 -22 -332 25 -567 142 -89 45 -165 81
-169 81 -11 -1 -56 -162 -50 -177 6 -16 186 -94 321 -139 268 -88 478 -89 662
-2 91 43 155 107 195 193 26 55 32 81 36 162 9 204 -64 359 -205 429 -47 24
-213 78 -402 132 -162 45 -208 64 -268 108 -121 89 -136 269 -31 374 59 59
115 80 234 86 166 8 287 -29 436 -131 l68 -47 25 40 c14 22 33 57 43 76 l17
36 -30 24 c-49 41 -205 112 -290 134 -90 23 -273 34 -347 20z"/>
<path d="M5776 4711 c-4 -6 -5 -255 -2 -553 5 -582 9 -622 60 -750 58 -143
145 -242 265 -302 101 -50 152 -61 286 -61 141 1 230 23 336 85 77 46 187 159
226 233 l28 52 3 -176 2 -177 31 -6 c18 -3 60 -6 95 -6 l64 0 0 829 0 829 -95
7 c-53 4 -99 4 -103 0 -4 -3 -6 -217 -4 -473 2 -271 -1 -490 -7 -522 -32 -186
-163 -370 -315 -443 -84 -41 -152 -57 -244 -57 -216 1 -360 120 -429 355 -15
53 -18 122 -21 598 l-3 537 -62 0 c-34 0 -72 3 -83 6 -12 3 -25 1 -28 -5z"/>
</g>
</svg>
